<svg width="160" height="40" viewBox="0 0 160 40" fill="none" xmlns="http://www.w3.org/2000/svg">
<path d="M25.577 27H23.132V11.8315H25.577V27ZM30.2862 27H27.8412V15.7481H30.0825V19.2346H30.241C30.5806 17.3329 32.0748 15.5218 34.9274 15.5218C38.0516 15.5218 39.5911 17.6272 39.5911 20.2308V27H37.146V20.8873C37.146 18.7818 36.1952 17.7178 33.8633 17.7178C31.3956 17.7178 30.2862 18.9856 30.2862 21.4307V27ZM48.7428 27.2264C44.2828 27.2264 41.317 24.1474 41.317 19.4158C41.317 14.6841 44.5092 11.6051 49.354 11.6051C53.6556 11.6051 56.644 13.7785 56.644 17.2876V17.4688H53.9499V17.2876C53.9499 15.1142 52.433 13.937 49.2861 13.937C45.6412 13.937 43.8979 15.6349 43.8979 19.4158C43.8979 23.1966 45.6185 24.8719 49.1729 24.8719C52.7953 24.8719 54.2216 23.8757 54.2216 21.3175V21.1137H48.6069V19.2573H56.644V27H54.4253V23.7173H54.2668C53.6329 25.9359 51.7086 27.2264 48.7428 27.2264ZM62.0106 27.2264C59.6787 27.2264 58.2072 26.1397 58.2072 24.2833C58.2072 22.54 59.6108 21.6344 61.8295 21.3854L66.946 20.842V20.1855C66.946 18.3291 66.131 17.6725 63.9803 17.6725C61.8974 17.6725 60.8786 18.3517 60.8786 20.0044V20.0949H58.4562V20.0044C58.4562 17.4461 60.5843 15.5218 64.1614 15.5218C67.7384 15.5218 69.3458 17.4688 69.3458 20.1629V27H67.1045V24.1927H66.946C66.3574 26.0944 64.5689 27.2264 62.0106 27.2264ZM60.6522 24.1248C60.6522 25.0304 61.2635 25.4605 62.6672 25.4605C65.2254 25.4605 66.946 24.5097 66.946 22.291L62.5313 22.789C61.2635 22.9475 60.6522 23.2418 60.6522 24.1248ZM73.9735 27H71.5284V15.7481H73.7697V19.1441H73.9056C74.1999 17.265 75.4224 15.5218 78.2297 15.5218C80.788 15.5218 82.169 17.0839 82.486 19.2346H82.6218C82.9161 17.3103 84.1839 15.5218 87.0365 15.5218C89.957 15.5218 91.4286 17.514 91.4286 20.2308V27H89.0061V20.8873C89.0061 18.6686 88.1232 17.7178 85.9498 17.7178C83.55 17.7178 82.6897 18.9403 82.6897 21.4307V27H80.2673V20.8873C80.2673 18.6686 79.407 17.7178 77.2336 17.7178C74.8112 17.7178 73.9735 18.9403 73.9735 21.4307V27ZM99.2751 27.2264C95.5849 27.2264 93.1624 25.1436 93.1624 21.3854C93.1624 17.8763 95.5622 15.5218 99.2298 15.5218C102.716 15.5218 105.093 17.4461 105.093 20.8647C105.093 21.2722 105.071 21.5891 105.003 21.9287H95.449C95.5396 24.1021 96.6037 25.2568 99.2072 25.2568C101.562 25.2568 102.535 24.487 102.535 23.1513V22.9702H104.98V23.1739C104.98 25.5737 102.626 27.2264 99.2751 27.2264ZM99.1846 17.4461C96.6942 17.4461 95.6075 18.5555 95.4717 20.5704H102.784V20.5251C102.784 18.4423 101.584 17.4461 99.1846 17.4461Z" fill="#D3176D"/>
<path d="M109.551 27H106.472V23.4909H109.551V27ZM116.055 27.2264C112.886 27.2264 111.346 25.1209 111.346 22.5174V15.7481H113.769V21.8608C113.769 23.9663 114.742 25.0304 117.119 25.0304C119.61 25.0304 120.764 23.7625 120.764 21.3175V15.7481H123.187V27H120.945V23.5135H120.809C120.447 25.4152 118.953 27.2264 116.055 27.2264ZM136.456 27H124.797V24.8945L130.524 19.778L132.902 17.9895V17.8083L130.524 17.8989H125.136V15.7481H136.116V17.8536L129.981 23.2418L127.898 24.7813V24.9624L129.981 24.8492H136.456V27Z" fill="white"/>
</svg>
